<svg width="55" height="55" viewBox="0 0 55 55" fill="none" xmlns="http://www.w3.org/2000/svg">
<path d="M27.0554 27.0554C27.0554 23.325 28.3774 20.1378 31.0215 17.4938C33.6655 14.8497 36.8527 13.5277 40.5831 13.5277C44.3135 13.5277 47.5007 14.8497 50.1447 17.4938C52.7888 20.1378 54.1108 23.325 54.1108 27.0554H27.0554ZM13.5277 40.5831C9.79733 40.5831 6.61012 39.2611 3.96607 36.617C1.32202 33.973 0 30.7858 0 27.0554H27.0554C27.0554 30.7858 25.7334 33.973 23.0893 36.617C20.4453 39.2611 17.2581 40.5831 13.5277 40.5831ZM27.0554 27.0554C23.325 27.0554 20.1378 25.7334 17.4938 23.0893C14.8497 20.4453 13.5277 17.2581 13.5277 13.5277C13.5277 9.79733 14.8497 6.61012 17.4938 3.96607C20.1378 1.32202 23.325 0 27.0554 0V27.0554ZM27.0554 54.1108V27.0554C30.7858 27.0554 33.973 28.3774 36.617 31.0215C39.2611 33.6655 40.5831 36.8527 40.5831 40.5831C40.5831 44.3135 39.2611 47.5007 36.617 50.1447C33.973 52.7888 30.7858 54.1108 27.0554 54.1108Z" fill="#8553C3"/>
</svg>
